<?xml version="1.0" encoding="UTF-8" standalone="no"?>
<!-- Created with Inkscape (http://www.inkscape.org/) -->

<svg
   width="396.875mm"
   height="263.78958mm"
   viewBox="0 0 396.875 263.78958"
   version="1.1"
   id="svg1"
   inkscape:version="1.3.2 (1:1.3.2+202311252150+091e20ef0f)"
   sodipodi:docname="marosa-leafs.svg"
   xml:space="preserve"
   xmlns:inkscape="http://www.inkscape.org/namespaces/inkscape"
   xmlns:sodipodi="http://sodipodi.sourceforge.net/DTD/sodipodi-0.dtd"
   xmlns:xlink="http://www.w3.org/1999/xlink"
   xmlns="http://www.w3.org/2000/svg"
   xmlns:svg="http://www.w3.org/2000/svg"><sodipodi:namedview
     id="namedview1"
     pagecolor="#505050"
     bordercolor="#eeeeee"
     borderopacity="1"
     inkscape:showpageshadow="0"
     inkscape:pageopacity="0"
     inkscape:pagecheckerboard="0"
     inkscape:deskcolor="#505050"
     inkscape:document-units="mm"
     inkscape:zoom="0.80127755"
     inkscape:cx="879.22093"
     inkscape:cy="685.77985"
     inkscape:window-width="1920"
     inkscape:window-height="1149"
     inkscape:window-x="0"
     inkscape:window-y="25"
     inkscape:window-maximized="1"
     inkscape:current-layer="layer1" /><defs
     id="defs1"><clipPath
       clipPathUnits="userSpaceOnUse"
       id="clipPath1"><path
         style="opacity:0.904658;fill:none;stroke:#1b419e;stroke-width:0.2;stroke-linecap:round;stroke-linejoin:round;stroke-dasharray:none"
         d="m 167.72674,264.76676 c -0.98915,-1.0371 -2.13271,-1.97789 -2.84032,-3.22493 -3.36376,-5.92804 -10.50482,-15.11558 -15.10663,-22.81673 -7.89973,-10.27772 -11.04197,-18.56867 -15.0257,-27.66727 -2.17786,-3.75907 -3.84561,-7.61155 -5.32508,-11.49852 -2.29254,-4.82412 -4.98032,-9.63146 -6.45354,-14.49035 -1.68044,-3.42763 -3.14117,-6.79529 -4.64899,-10.17581 -0.88902,-3.18966 -1.65051,-6.39054 -2.22494,-9.60788 l 0.0802,-6.6601 h 33.56124 l 4.58546,8.75464 4.01718,9.25016 6.93591,12.14643 c 1.81503,2.9915 3.10273,5.91214 4.48271,8.84518 1.85699,3.42599 3.67478,6.85028 4.6739,10.23883 0.77777,2.10946 1.7363,4.22946 1.71836,5.50659 0.37066,1.98847 -0.10414,3.80834 -0.84778,5.91559 -0.97181,-0.44022 -2.50851,-2.53541 -3.82799,-3.99414 -1.73011,-3.01235 -3.51689,-4.03137 -5.27999,-5.8837 -1.50594,-0.7987 -4.24274,-4.7312 -7.18381,-6.56419 l -8.52452,-8.30054 -4.64872,-4.93992 4.94366,13.21409 4.04856,12.5973 5.15365,12.9538 3.39019,9.63857 1.9636,6.51123 2.35089,7.76648 1.22554,6.42512 z"
         id="path2"
         sodipodi:nodetypes="cscccccccccccccccccccccccccccc" /></clipPath></defs><g
     inkscape:label="Ebene 1"
     inkscape:groupmode="layer"
     id="layer1"
     transform="translate(93.297546,-16.605209)"><image
       width="396.875"
       height="263.78958"
       preserveAspectRatio="none"
       style="image-rendering:optimizeQuality"
       xlink:href="misson-statement-box.jpg"
       id="image1"
       x="-93.297546"
       y="16.605209"
       clip-path="url(#clipPath1)" /></g></svg>
